<svg version="1.1"
      xmlns="http://www.w3.org/2000/svg"
      xmlns:xlink="http://www.w3.org/1999/xlink"  id="snapshot-77175" width="500" height="500" viewBox="0 0 500 500"><desc>This image was made on Patterninja.com</desc><defs>
<!-- image 47369 -->
<g id="transformed-47369" data-image="47369" transform="translate(-106, 100) rotate(45, 169, 150)"><g><svg version="1.1" width="338px" height="300px" viewBox="0 0 338 300"><g id="original-47369"><svg xmlns="http://www.w3.org/2000/svg" data-prefix="fas" data-icon="book-open" viewBox="0 0 576 512" xmlns:xlink="http://www.w3.org/1999/xlink" version="1.1" preserveAspectRatio="xMidYMid meet">
  <path d="M542.22 32.05c-54.8 3.11-163.72 14.43-230.96 55.59-4.64 2.84-7.27 7.89-7.27 13.17v363.87c0 11.55 12.63 18.85 23.28 13.49 69.18-34.82 169.23-44.32 218.7-46.92 16.89-.89 30.02-14.43 30.02-30.66V62.75c.01-17.71-15.35-31.74-33.77-30.7zM264.73 87.64C197.5 46.48 88.58 35.17 33.78 32.05 15.36 31.01 0 45.04 0 62.75V400.6c0 16.24 13.13 29.78 30.02 30.66 49.49 2.6 149.59 12.11 218.77 46.95 10.62 5.35 23.21-1.94 23.21-13.46V100.63c0-5.29-2.62-10.14-7.27-12.99z" fill="rgba(250, 250, 250, 1)" stroke="none"/>
</svg>
</g></svg></g></g>
<!-- /image 47369 -->

<!-- image 71115 -->
<g id="transformed-71115" data-image="71115" transform="translate(218, -100) rotate(315, 113, 100)"><g><svg version="1.1" width="226px" height="200px" viewBox="0 0 226 200"><g id="original-71115"><svg xmlns="http://www.w3.org/2000/svg" data-prefix="fas" data-icon="book-open" viewBox="0 0 576 512" xmlns:xlink="http://www.w3.org/1999/xlink" version="1.1" preserveAspectRatio="xMidYMid meet">
  <path d="M542.22 32.05c-54.8 3.11-163.72 14.43-230.96 55.59-4.64 2.84-7.27 7.89-7.27 13.17v363.87c0 11.55 12.63 18.85 23.28 13.49 69.18-34.82 169.23-44.32 218.7-46.92 16.89-.89 30.02-14.43 30.02-30.66V62.75c.01-17.71-15.35-31.74-33.77-30.7zM264.73 87.64C197.5 46.48 88.58 35.17 33.78 32.05 15.36 31.01 0 45.04 0 62.75V400.6c0 16.24 13.13 29.78 30.02 30.66 49.49 2.6 149.59 12.11 218.77 46.95 10.62 5.35 23.21-1.94 23.21-13.46V100.63c0-5.29-2.62-10.14-7.27-12.99z" fill="rgba(247, 247, 247, 1)" stroke="none"/>
</svg>
</g></svg></g></g>
<!-- /image 71115 -->
</defs><rect x="0" y="0" width="500" height="500" fill="rgba(255, 255, 255, 0)"></rect><use xlink:href="#transformed-47369" transform="translate(-500, -500)"></use><use xlink:href="#transformed-47369" transform="translate(0, -500)"></use><use xlink:href="#transformed-47369" transform="translate(500, -500)"></use><use xlink:href="#transformed-47369" transform="translate(-500, 0)"></use><use xlink:href="#transformed-47369" transform="translate(0, 0)"></use><use xlink:href="#transformed-47369" transform="translate(500, 0)"></use><use xlink:href="#transformed-47369" transform="translate(-500, 500)"></use><use xlink:href="#transformed-47369" transform="translate(0, 500)"></use><use xlink:href="#transformed-47369" transform="translate(500, 500)"></use><use xlink:href="#transformed-71115" transform="translate(-500, -500)"></use><use xlink:href="#transformed-71115" transform="translate(0, -500)"></use><use xlink:href="#transformed-71115" transform="translate(500, -500)"></use><use xlink:href="#transformed-71115" transform="translate(-500, 0)"></use><use xlink:href="#transformed-71115" transform="translate(0, 0)"></use><use xlink:href="#transformed-71115" transform="translate(500, 0)"></use><use xlink:href="#transformed-71115" transform="translate(-500, 500)"></use><use xlink:href="#transformed-71115" transform="translate(0, 500)"></use><use xlink:href="#transformed-71115" transform="translate(500, 500)"></use></svg>